<mxfile host="Electron" modified="2023-11-17T06:39:01.027Z" agent="Mozilla/5.0 (Windows NT 10.0; Win64; x64) AppleWebKit/537.36 (KHTML, like Gecko) draw.io/21.4.0 Chrome/112.0.5615.204 Electron/24.5.1 Safari/537.36" etag="V3BGrx6605RVYvYlGhyk" version="21.4.0" type="device">
  <diagram name="Page-1" id="11vAXlKRO8dN1wXYcJ1v">
    <mxGraphModel dx="592" dy="346" grid="1" gridSize="10" guides="1" tooltips="1" connect="1" arrows="1" fold="1" page="1" pageScale="1" pageWidth="850" pageHeight="1100" math="0" shadow="0">
      <root>
        <mxCell id="0" />
        <mxCell id="1" parent="0" />
        <mxCell id="3H63wGtVekqfE1MVY6gZ-5" value="Ứng dụng Chatbox" style="rounded=0;whiteSpace=wrap;html=1;" vertex="1" parent="1">
          <mxGeometry x="110" y="420" width="90" height="50" as="geometry" />
        </mxCell>
        <mxCell id="3H63wGtVekqfE1MVY6gZ-6" value="API ChatGPT" style="shape=dataStorage;whiteSpace=wrap;html=1;fixedSize=1;" vertex="1" parent="1">
          <mxGeometry x="300" y="420" width="130" height="50" as="geometry" />
        </mxCell>
        <mxCell id="3H63wGtVekqfE1MVY6gZ-7" value="Server" style="shape=document;whiteSpace=wrap;html=1;boundedLbl=1;" vertex="1" parent="1">
          <mxGeometry x="530" y="420" width="110" height="60" as="geometry" />
        </mxCell>
        <mxCell id="3H63wGtVekqfE1MVY6gZ-10" value="" style="endArrow=classic;html=1;rounded=0;entryX=0.033;entryY=0.26;entryDx=0;entryDy=0;exitX=1;exitY=0.25;exitDx=0;exitDy=0;entryPerimeter=0;" edge="1" parent="1" source="3H63wGtVekqfE1MVY6gZ-5" target="3H63wGtVekqfE1MVY6gZ-6">
          <mxGeometry width="50" height="50" relative="1" as="geometry">
            <mxPoint x="120" y="530" as="sourcePoint" />
            <mxPoint x="301.19999999999993" y="437.12" as="targetPoint" />
          </mxGeometry>
        </mxCell>
        <mxCell id="3H63wGtVekqfE1MVY6gZ-11" value="Tạo yêu cầu HTTP và gửi đến API" style="text;html=1;strokeColor=none;fillColor=none;align=center;verticalAlign=middle;whiteSpace=wrap;rounded=0;" vertex="1" parent="1">
          <mxGeometry x="220" y="440" width="70" height="70" as="geometry" />
        </mxCell>
        <mxCell id="3H63wGtVekqfE1MVY6gZ-13" value="Tiền xử lý, làm sạch và chuẩn hóa đữ liệu" style="text;html=1;strokeColor=none;fillColor=none;align=center;verticalAlign=middle;whiteSpace=wrap;rounded=0;" vertex="1" parent="1">
          <mxGeometry x="200" y="370" width="110" height="70" as="geometry" />
        </mxCell>
        <mxCell id="3H63wGtVekqfE1MVY6gZ-14" value="" style="endArrow=classic;html=1;rounded=0;exitX=0.883;exitY=0.268;exitDx=0;exitDy=0;entryX=0.003;entryY=0.228;entryDx=0;entryDy=0;entryPerimeter=0;exitPerimeter=0;" edge="1" parent="1" source="3H63wGtVekqfE1MVY6gZ-6" target="3H63wGtVekqfE1MVY6gZ-7">
          <mxGeometry width="50" height="50" relative="1" as="geometry">
            <mxPoint x="500" y="420" as="sourcePoint" />
            <mxPoint x="550" y="370" as="targetPoint" />
          </mxGeometry>
        </mxCell>
        <mxCell id="3H63wGtVekqfE1MVY6gZ-15" value="Chuyển câu hỏi đến server" style="text;html=1;strokeColor=none;fillColor=none;align=center;verticalAlign=middle;whiteSpace=wrap;rounded=0;" vertex="1" parent="1">
          <mxGeometry x="430" y="390" width="100" height="30" as="geometry" />
        </mxCell>
        <mxCell id="3H63wGtVekqfE1MVY6gZ-16" value="Server tiếp nhận và dự đoán" style="text;html=1;strokeColor=none;fillColor=none;align=center;verticalAlign=middle;whiteSpace=wrap;rounded=0;" vertex="1" parent="1">
          <mxGeometry x="570" y="380" width="70" height="30" as="geometry" />
        </mxCell>
        <mxCell id="3H63wGtVekqfE1MVY6gZ-19" value="" style="endArrow=none;dashed=1;html=1;rounded=0;exitX=1;exitY=0.5;exitDx=0;exitDy=0;entryX=0;entryY=0.5;entryDx=0;entryDy=0;" edge="1" parent="1" source="3H63wGtVekqfE1MVY6gZ-5" target="3H63wGtVekqfE1MVY6gZ-6">
          <mxGeometry width="50" height="50" relative="1" as="geometry">
            <mxPoint x="220" y="490" as="sourcePoint" />
            <mxPoint x="270" y="440" as="targetPoint" />
          </mxGeometry>
        </mxCell>
        <mxCell id="3H63wGtVekqfE1MVY6gZ-20" value="" style="endArrow=classic;html=1;rounded=0;entryX=0.473;entryY=1.03;entryDx=0;entryDy=0;entryPerimeter=0;exitX=0.267;exitY=1.011;exitDx=0;exitDy=0;exitPerimeter=0;" edge="1" parent="1" source="3H63wGtVekqfE1MVY6gZ-7" target="3H63wGtVekqfE1MVY6gZ-6">
          <mxGeometry width="50" height="50" relative="1" as="geometry">
            <mxPoint x="340" y="580" as="sourcePoint" />
            <mxPoint x="390" y="530" as="targetPoint" />
            <Array as="points">
              <mxPoint x="560" y="520" />
              <mxPoint x="361" y="520" />
            </Array>
          </mxGeometry>
        </mxCell>
        <mxCell id="3H63wGtVekqfE1MVY6gZ-21" value="Trả kết quả qua HTTP" style="text;html=1;strokeColor=none;fillColor=none;align=center;verticalAlign=middle;whiteSpace=wrap;rounded=0;" vertex="1" parent="1">
          <mxGeometry x="520" y="530" width="90" height="30" as="geometry" />
        </mxCell>
        <mxCell id="3H63wGtVekqfE1MVY6gZ-22" value="" style="endArrow=classic;html=1;rounded=0;exitX=0.35;exitY=1.052;exitDx=0;exitDy=0;exitPerimeter=0;entryX=0.75;entryY=1;entryDx=0;entryDy=0;" edge="1" parent="1" source="3H63wGtVekqfE1MVY6gZ-6" target="3H63wGtVekqfE1MVY6gZ-5">
          <mxGeometry width="50" height="50" relative="1" as="geometry">
            <mxPoint x="240" y="580" as="sourcePoint" />
            <mxPoint x="290" y="530" as="targetPoint" />
            <Array as="points">
              <mxPoint x="346" y="520" />
              <mxPoint x="178" y="520" />
            </Array>
          </mxGeometry>
        </mxCell>
        <mxCell id="3H63wGtVekqfE1MVY6gZ-23" value="Xử lí, dịch mã để hiển thị lên màn hình" style="text;html=1;strokeColor=none;fillColor=none;align=center;verticalAlign=middle;whiteSpace=wrap;rounded=0;" vertex="1" parent="1">
          <mxGeometry x="205" y="530" width="125" height="30" as="geometry" />
        </mxCell>
      </root>
    </mxGraphModel>
  </diagram>
</mxfile>
